# xmcd
#
# Track frame offsets:
#	150
#	23085
#	45292
#	63220
#	82075
#	103050
#	122645
#	145525
#	168795
#	191570
#	205767
#
# Disc length: 3093 seconds
#
# Revision: 1
# Processed by: cddbd v1.5PL3 Copyright (c) Steve Scherf et al.
# Submitted via: CDex 1.50Beta5
#
DISCID=860c130b
DTITLE=高野寛 - th@nks
DYEAR=1900
DGENRE=Pop
TTITLE0=泡の魔術
TTITLE1=thanks
TTITLE2=衛星から愛をこめて
TTITLE3=二十歳(はたち)の恋
TTITLE4=君といたいな
TTITLE5=数の論理で
TTITLE6=かならず
TTITLE7=ホロスコープ
TTITLE8=島
TTITLE9=果実の秘蜜
TTITLE10=2000
EXTD=
EXTT0=
EXTT1=
EXTT2=
EXTT3=
EXTT4=
EXTT5=
EXTT6=
EXTT7=
EXTT8=
EXTT9=
EXTT10=
PLAYORDER=
